<svg xmlns="http://www.w3.org/2000/svg" fill="#0078d6" version="1.1" viewBox="0 0 128 128"><g fill="#0078d6" transform="translate(113.69 -45.538)"><polygon points="18.502 20.219 41.727 20.219 41.727 0 18.502 3.389" transform="matrix(3.0244 0 0 3.0244 -112.79 45.538)"/><polygon points="16.865 20.219 16.865 3.627 0 6.087 0 20.219" transform="matrix(3.0244 0 0 3.0244 -112.79 45.538)"/><polygon points="16.865 21.855 0 21.855 0 36.167 16.865 38.655" transform="matrix(3.0244 0 0 3.0244 -112.79 45.538)"/><polygon points="18.502 21.855 18.502 38.897 41.727 42.323 41.727 21.855" transform="matrix(3.0244 0 0 3.0244 -112.79 45.538)"/><g><rect width="56.243" height="38.441" x="-77.809" y="106.54" fill="#8e8e8c" stroke-width=".308" ry="4.918"/><circle cx="-49.688" cy="122.78" r="3.831" fill="#0078d6" stroke-width=".979"/><path fill="#0078d6" stroke-width=".611" d="m-49.688 121.1 3.7347 11.989h-7.4694z"/><path fill="#8e8e8c" stroke-width="1.099" d="m-56.436 77.843c-7.9131 0-14.283 7.0486-14.283 15.805v15.805h9.1248v-13.409c0-5.6074 3.909-10.12 8.765-10.12h6.283c4.8561 0 8.765 4.19 8.765 10.12v3.2047h9.1248v-5.5998c0-8.7559-6.3702-15.805-14.283-15.805z"/></g></g></svg>