<svg xmlns="http://www.w3.org/2000/svg" width="24" height="24" version="1.1"><g transform="translate(0 -1028.4)"><path fill="#7f8c8d" d="m3 1031.4v10c0 4.2 3.6322 8 9 10 5.368-2 9-5.8 9-10v-10h-18z"/><path fill="#bdc3c7" d="m3 1030.4v10c0 4.2 3.6322 8 9 10 5.368-2 9-5.8 9-10v-10h-18z"/><path fill="#95a5a6" d="m3 1030.4v10c0 4.2 3.6322 8 9 10v-20h-9z"/><path fill="#ecf0f1" d="m5 1032.4v8c0 3.4 2.8251 6.4 7 8 4.175-1.6 7-4.6 7-8v-8h-14z"/><path fill="#2980b9" d="m5 1040.4c0 3.4 2.8251 6.4 7 8v-8h-7z"/><rect width="7" height="8" x="12" y="4" fill="#3498db" transform="translate(0 1028.4)"/><rect width="7" height="8" x="5" y="4" fill="#bdc3c7" transform="translate(0 1028.4)"/></g></svg>