<svg xmlns="http://www.w3.org/2000/svg" width="512" height="512" preserveAspectRatio="none" version="1.1" viewBox="0 0 127.86 127.86"><g id="QRcode" transform="scale(3.4558)"><rect width="37" height="37" fill="#fff"/><g id="Pattern" transform="translate(4,4)"><rect width="1" height="1"/><rect width="1" height="1" x="1"/><rect width="1" height="1" x="2"/><rect width="1" height="1" x="3"/><rect width="1" height="1" x="4"/><rect width="1" height="1" x="5"/><rect width="1" height="1" x="6"/><rect width="1" height="1" x="10"/><rect width="1" height="1" x="13"/><rect width="1" height="1" x="17"/><rect width="1" height="1" x="18"/><rect width="1" height="1" x="19"/><rect width="1" height="1" x="20"/><rect width="1" height="1" x="22"/><rect width="1" height="1" x="23"/><rect width="1" height="1" x="24"/><rect width="1" height="1" x="25"/><rect width="1" height="1" x="26"/><rect width="1" height="1" x="27"/><rect width="1" height="1" x="28"/><rect width="1" height="1" y="1"/><rect width="1" height="1" x="6" y="1"/><rect width="1" height="1" x="8" y="1"/><rect width="1" height="1" x="9" y="1"/><rect width="1" height="1" x="10" y="1"/><rect width="1" height="1" x="13" y="1"/><rect width="1" height="1" x="14" y="1"/><rect width="1" height="1" x="15" y="1"/><rect width="1" height="1" x="18" y="1"/><rect width="1" height="1" x="20" y="1"/><rect width="1" height="1" x="22" y="1"/><rect width="1" height="1" x="28" y="1"/><rect width="1" height="1" y="2"/><rect width="1" height="1" x="2" y="2"/><rect width="1" height="1" x="3" y="2"/><rect width="1" height="1" x="4" y="2"/><rect width="1" height="1" x="6" y="2"/><rect width="1" height="1" x="8" y="2"/><rect width="1" height="1" x="14" y="2"/><rect width="1" height="1" x="17" y="2"/><rect width="1" height="1" x="18" y="2"/><rect width="1" height="1" x="20" y="2"/><rect width="1" height="1" x="22" y="2"/><rect width="1" height="1" x="24" y="2"/><rect width="1" height="1" x="25" y="2"/><rect width="1" height="1" x="26" y="2"/><rect width="1" height="1" x="28" y="2"/><rect width="1" height="1" y="3"/><rect width="1" height="1" x="2" y="3"/><rect width="1" height="1" x="3" y="3"/><rect width="1" height="1" x="4" y="3"/><rect width="1" height="1" x="6" y="3"/><rect width="1" height="1" x="9" y="3"/><rect width="1" height="1" x="12" y="3"/><rect width="1" height="1" x="13" y="3"/><rect width="1" height="1" x="14" y="3"/><rect width="1" height="1" x="16" y="3"/><rect width="1" height="1" x="22" y="3"/><rect width="1" height="1" x="24" y="3"/><rect width="1" height="1" x="25" y="3"/><rect width="1" height="1" x="26" y="3"/><rect width="1" height="1" x="28" y="3"/><rect width="1" height="1" y="4"/><rect width="1" height="1" x="2" y="4"/><rect width="1" height="1" x="3" y="4"/><rect width="1" height="1" x="4" y="4"/><rect width="1" height="1" x="6" y="4"/><rect width="1" height="1" x="8" y="4"/><rect width="1" height="1" x="9" y="4"/><rect width="1" height="1" x="10" y="4"/><rect width="1" height="1" x="12" y="4"/><rect width="1" height="1" x="14" y="4"/><rect width="1" height="1" x="18" y="4"/><rect width="1" height="1" x="22" y="4"/><rect width="1" height="1" x="24" y="4"/><rect width="1" height="1" x="25" y="4"/><rect width="1" height="1" x="26" y="4"/><rect width="1" height="1" x="28" y="4"/><rect width="1" height="1" y="5"/><rect width="1" height="1" x="6" y="5"/><rect width="1" height="1" x="8" y="5"/><rect width="1" height="1" x="10" y="5"/><rect width="1" height="1" x="12" y="5"/><rect width="1" height="1" x="16" y="5"/><rect width="1" height="1" x="20" y="5"/><rect width="1" height="1" x="22" y="5"/><rect width="1" height="1" x="28" y="5"/><rect width="1" height="1" y="6"/><rect width="1" height="1" x="1" y="6"/><rect width="1" height="1" x="2" y="6"/><rect width="1" height="1" x="3" y="6"/><rect width="1" height="1" x="4" y="6"/><rect width="1" height="1" x="5" y="6"/><rect width="1" height="1" x="6" y="6"/><rect width="1" height="1" x="8" y="6"/><rect width="1" height="1" x="10" y="6"/><rect width="1" height="1" x="12" y="6"/><rect width="1" height="1" x="14" y="6"/><rect width="1" height="1" x="16" y="6"/><rect width="1" height="1" x="18" y="6"/><rect width="1" height="1" x="20" y="6"/><rect width="1" height="1" x="22" y="6"/><rect width="1" height="1" x="23" y="6"/><rect width="1" height="1" x="24" y="6"/><rect width="1" height="1" x="25" y="6"/><rect width="1" height="1" x="26" y="6"/><rect width="1" height="1" x="27" y="6"/><rect width="1" height="1" x="28" y="6"/><rect width="1" height="1" x="8" y="7"/><rect width="1" height="1" x="10" y="7"/><rect width="1" height="1" x="11" y="7"/><rect width="1" height="1" x="15" y="7"/><rect width="1" height="1" x="16" y="7"/><rect width="1" height="1" x="18" y="7"/><rect width="1" height="1" y="8"/><rect width="1" height="1" x="1" y="8"/><rect width="1" height="1" x="3" y="8"/><rect width="1" height="1" x="6" y="8"/><rect width="1" height="1" x="7" y="8"/><rect width="1" height="1" x="11" y="8"/><rect width="1" height="1" x="12" y="8"/><rect width="1" height="1" x="13" y="8"/><rect width="1" height="1" x="15" y="8"/><rect width="1" height="1" x="16" y="8"/><rect width="1" height="1" x="17" y="8"/><rect width="1" height="1" x="18" y="8"/><rect width="1" height="1" x="22" y="8"/><rect width="1" height="1" x="23" y="8"/><rect width="1" height="1" x="24" y="8"/><rect width="1" height="1" x="26" y="8"/><rect width="1" height="1" x="27" y="8"/><rect width="1" height="1" y="9"/><rect width="1" height="1" x="2" y="9"/><rect width="1" height="1" x="3" y="9"/><rect width="1" height="1" x="4" y="9"/><rect width="1" height="1" x="5" y="9"/><rect width="1" height="1" x="7" y="9"/><rect width="1" height="1" x="8" y="9"/><rect width="1" height="1" x="9" y="9"/><rect width="1" height="1" x="11" y="9"/><rect width="1" height="1" x="12" y="9"/><rect width="1" height="1" x="13" y="9"/><rect width="1" height="1" x="14" y="9"/><rect width="1" height="1" x="15" y="9"/><rect width="1" height="1" x="16" y="9"/><rect width="1" height="1" x="18" y="9"/><rect width="1" height="1" x="20" y="9"/><rect width="1" height="1" x="21" y="9"/><rect width="1" height="1" x="22" y="9"/><rect width="1" height="1" x="26" y="9"/><rect width="1" height="1" x="27" y="9"/><rect width="1" height="1" x="28" y="9"/><rect width="1" height="1" x="1" y="10"/><rect width="1" height="1" x="2" y="10"/><rect width="1" height="1" x="3" y="10"/><rect width="1" height="1" x="6" y="10"/><rect width="1" height="1" x="7" y="10"/><rect width="1" height="1" x="11" y="10"/><rect width="1" height="1" x="12" y="10"/><rect width="1" height="1" x="13" y="10"/><rect width="1" height="1" x="14" y="10"/><rect width="1" height="1" x="15" y="10"/><rect width="1" height="1" x="17" y="10"/><rect width="1" height="1" x="20" y="10"/><rect width="1" height="1" x="22" y="10"/><rect width="1" height="1" x="25" y="10"/><rect width="1" height="1" x="26" y="10"/><rect width="1" height="1" x="28" y="10"/><rect width="1" height="1" x="1" y="11"/><rect width="1" height="1" x="2" y="11"/><rect width="1" height="1" x="5" y="11"/><rect width="1" height="1" x="7" y="11"/><rect width="1" height="1" x="9" y="11"/><rect width="1" height="1" x="10" y="11"/><rect width="1" height="1" x="11" y="11"/><rect width="1" height="1" x="12" y="11"/><rect width="1" height="1" x="13" y="11"/><rect width="1" height="1" x="14" y="11"/><rect width="1" height="1" x="15" y="11"/><rect width="1" height="1" x="16" y="11"/><rect width="1" height="1" x="18" y="11"/><rect width="1" height="1" x="20" y="11"/><rect width="1" height="1" x="21" y="11"/><rect width="1" height="1" x="24" y="11"/><rect width="1" height="1" x="25" y="11"/><rect width="1" height="1" x="27" y="11"/><rect width="1" height="1" x="28" y="11"/><rect width="1" height="1" y="12"/><rect width="1" height="1" x="1" y="12"/><rect width="1" height="1" x="3" y="12"/><rect width="1" height="1" x="4" y="12"/><rect width="1" height="1" x="6" y="12"/><rect width="1" height="1" x="10" y="12"/><rect width="1" height="1" x="11" y="12"/><rect width="1" height="1" x="14" y="12"/><rect width="1" height="1" x="15" y="12"/><rect width="1" height="1" x="17" y="12"/><rect width="1" height="1" x="20" y="12"/><rect width="1" height="1" x="21" y="12"/><rect width="1" height="1" x="22" y="12"/><rect width="1" height="1" x="23" y="12"/><rect width="1" height="1" x="27" y="12"/><rect width="1" height="1" x="1" y="13"/><rect width="1" height="1" x="2" y="13"/><rect width="1" height="1" x="8" y="13"/><rect width="1" height="1" x="9" y="13"/><rect width="1" height="1" x="11" y="13"/><rect width="1" height="1" x="13" y="13"/><rect width="1" height="1" x="15" y="13"/><rect width="1" height="1" x="16" y="13"/><rect width="1" height="1" x="18" y="13"/><rect width="1" height="1" x="20" y="13"/><rect width="1" height="1" x="23" y="13"/><rect width="1" height="1" x="25" y="13"/><rect width="1" height="1" x="27" y="13"/><rect width="1" height="1" y="14"/><rect width="1" height="1" x="4" y="14"/><rect width="1" height="1" x="5" y="14"/><rect width="1" height="1" x="6" y="14"/><rect width="1" height="1" x="7" y="14"/><rect width="1" height="1" x="10" y="14"/><rect width="1" height="1" x="11" y="14"/><rect width="1" height="1" x="13" y="14"/><rect width="1" height="1" x="14" y="14"/><rect width="1" height="1" x="15" y="14"/><rect width="1" height="1" x="16" y="14"/><rect width="1" height="1" x="19" y="14"/><rect width="1" height="1" x="20" y="14"/><rect width="1" height="1" x="24" y="14"/><rect width="1" height="1" x="26" y="14"/><rect width="1" height="1" x="28" y="14"/><rect width="1" height="1" y="15"/><rect width="1" height="1" x="1" y="15"/><rect width="1" height="1" x="3" y="15"/><rect width="1" height="1" x="8" y="15"/><rect width="1" height="1" x="10" y="15"/><rect width="1" height="1" x="11" y="15"/><rect width="1" height="1" x="18" y="15"/><rect width="1" height="1" x="20" y="15"/><rect width="1" height="1" x="21" y="15"/><rect width="1" height="1" x="22" y="15"/><rect width="1" height="1" x="23" y="15"/><rect width="1" height="1" x="24" y="15"/><rect width="1" height="1" x="26" y="15"/><rect width="1" height="1" y="16"/><rect width="1" height="1" x="4" y="16"/><rect width="1" height="1" x="5" y="16"/><rect width="1" height="1" x="6" y="16"/><rect width="1" height="1" x="10" y="16"/><rect width="1" height="1" x="12" y="16"/><rect width="1" height="1" x="13" y="16"/><rect width="1" height="1" x="22" y="16"/><rect width="1" height="1" x="24" y="16"/><rect width="1" height="1" x="26" y="16"/><rect width="1" height="1" x="2" y="17"/><rect width="1" height="1" x="3" y="17"/><rect width="1" height="1" x="7" y="17"/><rect width="1" height="1" x="9" y="17"/><rect width="1" height="1" x="10" y="17"/><rect width="1" height="1" x="12" y="17"/><rect width="1" height="1" x="13" y="17"/><rect width="1" height="1" x="14" y="17"/><rect width="1" height="1" x="15" y="17"/><rect width="1" height="1" x="16" y="17"/><rect width="1" height="1" x="17" y="17"/><rect width="1" height="1" x="18" y="17"/><rect width="1" height="1" x="21" y="17"/><rect width="1" height="1" x="22" y="17"/><rect width="1" height="1" x="25" y="17"/><rect width="1" height="1" x="27" y="17"/><rect width="1" height="1" x="28" y="17"/><rect width="1" height="1" y="18"/><rect width="1" height="1" x="2" y="18"/><rect width="1" height="1" x="3" y="18"/><rect width="1" height="1" x="5" y="18"/><rect width="1" height="1" x="6" y="18"/><rect width="1" height="1" x="7" y="18"/><rect width="1" height="1" x="8" y="18"/><rect width="1" height="1" x="10" y="18"/><rect width="1" height="1" x="11" y="18"/><rect width="1" height="1" x="12" y="18"/><rect width="1" height="1" x="14" y="18"/><rect width="1" height="1" x="16" y="18"/><rect width="1" height="1" x="17" y="18"/><rect width="1" height="1" x="18" y="18"/><rect width="1" height="1" x="20" y="18"/><rect width="1" height="1" x="21" y="18"/><rect width="1" height="1" x="23" y="18"/><rect width="1" height="1" x="26" y="18"/><rect width="1" height="1" x="2" y="19"/><rect width="1" height="1" x="4" y="19"/><rect width="1" height="1" x="5" y="19"/><rect width="1" height="1" x="7" y="19"/><rect width="1" height="1" x="8" y="19"/><rect width="1" height="1" x="12" y="19"/><rect width="1" height="1" x="14" y="19"/><rect width="1" height="1" x="16" y="19"/><rect width="1" height="1" x="17" y="19"/><rect width="1" height="1" x="19" y="19"/><rect width="1" height="1" x="23" y="19"/><rect width="1" height="1" x="25" y="19"/><rect width="1" height="1" x="28" y="19"/><rect width="1" height="1" y="20"/><rect width="1" height="1" x="2" y="20"/><rect width="1" height="1" x="3" y="20"/><rect width="1" height="1" x="6" y="20"/><rect width="1" height="1" x="7" y="20"/><rect width="1" height="1" x="10" y="20"/><rect width="1" height="1" x="18" y="20"/><rect width="1" height="1" x="19" y="20"/><rect width="1" height="1" x="20" y="20"/><rect width="1" height="1" x="21" y="20"/><rect width="1" height="1" x="22" y="20"/><rect width="1" height="1" x="23" y="20"/><rect width="1" height="1" x="24" y="20"/><rect width="1" height="1" x="25" y="20"/><rect width="1" height="1" x="26" y="20"/><rect width="1" height="1" x="27" y="20"/><rect width="1" height="1" x="8" y="21"/><rect width="1" height="1" x="10" y="21"/><rect width="1" height="1" x="11" y="21"/><rect width="1" height="1" x="14" y="21"/><rect width="1" height="1" x="17" y="21"/><rect width="1" height="1" x="18" y="21"/><rect width="1" height="1" x="20" y="21"/><rect width="1" height="1" x="24" y="21"/><rect width="1" height="1" x="25" y="21"/><rect width="1" height="1" x="27" y="21"/><rect width="1" height="1" x="28" y="21"/><rect width="1" height="1" y="22"/><rect width="1" height="1" x="1" y="22"/><rect width="1" height="1" x="2" y="22"/><rect width="1" height="1" x="3" y="22"/><rect width="1" height="1" x="4" y="22"/><rect width="1" height="1" x="5" y="22"/><rect width="1" height="1" x="6" y="22"/><rect width="1" height="1" x="8" y="22"/><rect width="1" height="1" x="9" y="22"/><rect width="1" height="1" x="10" y="22"/><rect width="1" height="1" x="16" y="22"/><rect width="1" height="1" x="19" y="22"/><rect width="1" height="1" x="20" y="22"/><rect width="1" height="1" x="22" y="22"/><rect width="1" height="1" x="24" y="22"/><rect width="1" height="1" y="23"/><rect width="1" height="1" x="6" y="23"/><rect width="1" height="1" x="9" y="23"/><rect width="1" height="1" x="10" y="23"/><rect width="1" height="1" x="14" y="23"/><rect width="1" height="1" x="15" y="23"/><rect width="1" height="1" x="17" y="23"/><rect width="1" height="1" x="18" y="23"/><rect width="1" height="1" x="20" y="23"/><rect width="1" height="1" x="24" y="23"/><rect width="1" height="1" x="26" y="23"/><rect width="1" height="1" x="27" y="23"/><rect width="1" height="1" y="24"/><rect width="1" height="1" x="2" y="24"/><rect width="1" height="1" x="3" y="24"/><rect width="1" height="1" x="4" y="24"/><rect width="1" height="1" x="6" y="24"/><rect width="1" height="1" x="12" y="24"/><rect width="1" height="1" x="15" y="24"/><rect width="1" height="1" x="16" y="24"/><rect width="1" height="1" x="17" y="24"/><rect width="1" height="1" x="19" y="24"/><rect width="1" height="1" x="20" y="24"/><rect width="1" height="1" x="21" y="24"/><rect width="1" height="1" x="22" y="24"/><rect width="1" height="1" x="23" y="24"/><rect width="1" height="1" x="24" y="24"/><rect width="1" height="1" x="25" y="24"/><rect width="1" height="1" x="26" y="24"/><rect width="1" height="1" x="27" y="24"/><rect width="1" height="1" y="25"/><rect width="1" height="1" x="2" y="25"/><rect width="1" height="1" x="3" y="25"/><rect width="1" height="1" x="4" y="25"/><rect width="1" height="1" x="6" y="25"/><rect width="1" height="1" x="8" y="25"/><rect width="1" height="1" x="9" y="25"/><rect width="1" height="1" x="11" y="25"/><rect width="1" height="1" x="12" y="25"/><rect width="1" height="1" x="15" y="25"/><rect width="1" height="1" x="17" y="25"/><rect width="1" height="1" x="20" y="25"/><rect width="1" height="1" x="24" y="25"/><rect width="1" height="1" x="28" y="25"/><rect width="1" height="1" y="26"/><rect width="1" height="1" x="2" y="26"/><rect width="1" height="1" x="3" y="26"/><rect width="1" height="1" x="4" y="26"/><rect width="1" height="1" x="6" y="26"/><rect width="1" height="1" x="9" y="26"/><rect width="1" height="1" x="10" y="26"/><rect width="1" height="1" x="12" y="26"/><rect width="1" height="1" x="15" y="26"/><rect width="1" height="1" x="16" y="26"/><rect width="1" height="1" x="17" y="26"/><rect width="1" height="1" x="20" y="26"/><rect width="1" height="1" x="21" y="26"/><rect width="1" height="1" x="22" y="26"/><rect width="1" height="1" x="23" y="26"/><rect width="1" height="1" x="24" y="26"/><rect width="1" height="1" x="25" y="26"/><rect width="1" height="1" x="26" y="26"/><rect width="1" height="1" x="28" y="26"/><rect width="1" height="1" y="27"/><rect width="1" height="1" x="6" y="27"/><rect width="1" height="1" x="8" y="27"/><rect width="1" height="1" x="9" y="27"/><rect width="1" height="1" x="10" y="27"/><rect width="1" height="1" x="12" y="27"/><rect width="1" height="1" x="13" y="27"/><rect width="1" height="1" x="14" y="27"/><rect width="1" height="1" x="16" y="27"/><rect width="1" height="1" x="18" y="27"/><rect width="1" height="1" x="19" y="27"/><rect width="1" height="1" x="22" y="27"/><rect width="1" height="1" x="23" y="27"/><rect width="1" height="1" x="25" y="27"/><rect width="1" height="1" x="27" y="27"/><rect width="1" height="1" x="28" y="27"/><rect width="1" height="1" y="28"/><rect width="1" height="1" x="1" y="28"/><rect width="1" height="1" x="2" y="28"/><rect width="1" height="1" x="3" y="28"/><rect width="1" height="1" x="4" y="28"/><rect width="1" height="1" x="5" y="28"/><rect width="1" height="1" x="6" y="28"/><rect width="1" height="1" x="8" y="28"/><rect width="1" height="1" x="9" y="28"/><rect width="1" height="1" x="10" y="28"/><rect width="1" height="1" x="11" y="28"/><rect width="1" height="1" x="13" y="28"/><rect width="1" height="1" x="14" y="28"/><rect width="1" height="1" x="16" y="28"/><rect width="1" height="1" x="17" y="28"/><rect width="1" height="1" x="18" y="28"/><rect width="1" height="1" x="20" y="28"/><rect width="1" height="1" x="23" y="28"/><rect width="1" height="1" x="25" y="28"/></g></g></svg>